# xmcd
# 
# Track frame offsets:
#     150
#     17997
#     34570
#     51655
#     76952
#     99592
#     116770
#     132140
#     148720
#     164730
#     179222
#     194920
#     210752
# 
# Disc length: 3017
# 
# Revision: 4
# Processed by: cddbd v1.5.2PL0 Copyright (c) Steve Scherf et al.
# Submitted via: BonkEnc v1.0
# 
DISCID=c50bc70d
DTITLE=F.R. David - Words 2000
DYEAR=1999
DGENRE=ItaloDisco 
TTITLE0=Words (Groove Mix)
TTITLE1=Sahara's Night
TTITLE2=Pick Up The Phone
TTITLE3=Year Of The Cat
TTITLE4=I'm Not In Love
TTITLE5=I Like Chopin
TTITLE6=I Need You
TTITLE7=Everywhere I Go
TTITLE8=Words (Version '99)
TTITLE9=Pick Up The Phone (Original Version)
TTITLE10=I Need You (Original Version)
TTITLE11=Long Distance Flight (Original Version)
TTITLE12=Words (Original Version)
EXTD=YEAR: 1999
EXTT0=
EXTT1=
EXTT2=
EXTT3=
EXTT4=
EXTT5=
EXTT6=
EXTT7=
EXTT8=
EXTT9=
EXTT10=
EXTT11=
EXTT12=
PLAYORDER=
